# xmcd
#
# Track frame offsets:
# 150
# 18183
# 55131
# 78763
# 112464
# 130753
# 152525
# 177263
# 218844
# 241512
# 262149
# 295239
# 313352
#
# Disc length: 4416 seconds
#
#
# Revision: 1
# Processed by: cddbd v1.5.1PL2 Copyright (c) Steve Scherf et al.
# Submitted via: FreeRIP 2.945 
#
DISCID=b3113e0d
DTITLE=Chuck Beattie - Live at the Blue Ridge Corn Maze
DYEAR=2002
DGENRE=Blues
TTITLE0=I'm Ready
TTITLE1=Hoochie Coochie Man
TTITLE2=One Way Out
TTITLE3=Long Distance Call
TTITLE4=Crow Jane
TTITLE5=Hey Bartender
TTITLE6=Give Me Back My Wig
TTITLE7=She's 19 Years Old
TTITLE8=Kansas City
TTITLE9=Shake, Rattle, and Roll
TTITLE10=Ain't No Sunshine
TTITLE11=Messin' With The Kid
TTITLE12=Sweet Home Chicago
EXTD=
EXTT0=
EXTT1=
EXTT2=
EXTT3=
EXTT4=
EXTT5=
EXTT6=
EXTT7=
EXTT8=
EXTT9=
EXTT10=
EXTT11=
EXTT12=
PLAYORDER=
